<svg width="55" height="53" viewBox="0 0 55 53" fill="none" xmlns="http://www.w3.org/2000/svg">
<path fill-rule="evenodd" clip-rule="evenodd" d="M0.95166 11.1849L0.951664 42.8955C0.951666 46.0344 2.87405 48.4008 5.35161 49.3948C5.97421 48.1682 6.67597 46.8798 7.43503 45.5549C9.86906 41.3067 12.9883 36.5227 16.2638 31.9069C19.5397 27.2905 22.9871 22.8207 26.0831 19.2028C26.6908 18.4927 27.2896 17.8097 27.8751 17.161L12.1019 5.54795C7.47974 2.14489 0.95166 5.44514 0.95166 11.1849ZM30.3037 18.949C29.6837 19.6309 29.035 20.3674 28.3625 21.1533C25.3371 24.6887 21.9453 29.0843 18.7104 33.643C15.4751 38.2022 12.412 42.9029 10.0381 47.0463C9.46959 48.0385 8.94584 48.99 8.47146 49.8929C9.94876 49.7907 11.4302 49.2076 12.6924 48.0457L38.0814 24.6754L30.3037 18.949Z" fill="#1141AC"/>
<path d="M0.951664 42.8955H0.451664H0.951664ZM0.95166 11.1849H0.45166H0.95166ZM5.35161 49.3948L5.16542 49.8589L5.59027 50.0293L5.79746 49.6211L5.35161 49.3948ZM7.43503 45.5549L7.86887 45.8035V45.8035L7.43503 45.5549ZM16.2638 31.9069L16.6716 32.1962L16.2638 31.9069ZM26.0831 19.2028L26.463 19.5279L26.0831 19.2028ZM27.8751 17.161L28.2463 17.496L28.6164 17.0858L28.1715 16.7583L27.8751 17.161ZM12.1019 5.54795L12.3983 5.14531L12.1019 5.54795ZM30.3037 18.949L30.6002 18.5464L30.2371 18.2791L29.9338 18.6127L30.3037 18.949ZM28.3625 21.1533L27.9826 20.8282L28.3625 21.1533ZM18.7104 33.643L18.3026 33.3537L18.7104 33.643ZM10.0381 47.0463L10.4719 47.2949V47.2949L10.0381 47.0463ZM8.47146 49.8929L8.02883 49.6604L7.6121 50.4535L8.50596 50.3917L8.47146 49.8929ZM12.6924 48.0457L12.3538 47.6779H12.3538L12.6924 48.0457ZM38.0814 24.6754L38.42 25.0433L38.8664 24.6324L38.3779 24.2727L38.0814 24.6754ZM1.45166 42.8955L1.45166 11.1849H0.45166L0.451664 42.8955H1.45166ZM5.5378 48.9308C3.23089 48.0052 1.45167 45.8105 1.45166 42.8955H0.451664C0.451666 46.2583 2.5172 48.7963 5.16542 49.8589L5.5378 48.9308ZM5.79746 49.6211C6.41552 48.4035 7.11312 47.1226 7.86887 45.8035L7.00119 45.3064C6.23882 46.637 5.5329 47.933 4.90576 49.1685L5.79746 49.6211ZM7.86887 45.8035C10.2929 41.5727 13.4028 36.8027 16.6716 32.1962L15.8561 31.6175C12.5738 36.2428 9.44523 41.0406 7.00119 45.3064L7.86887 45.8035ZM16.6716 32.1962C19.9406 27.5895 23.3787 23.1321 26.463 19.5279L25.7032 18.8777C22.5954 22.5094 19.1387 26.9916 15.8561 31.6175L16.6716 32.1962ZM26.463 19.5279C27.0682 18.8207 27.6641 18.1411 28.2463 17.496L27.5039 16.826C26.9151 17.4784 26.3134 18.1647 25.7032 18.8777L26.463 19.5279ZM11.8055 5.9506L27.5786 17.5636L28.1715 16.7583L12.3983 5.14531L11.8055 5.9506ZM1.45166 11.1849C1.45166 5.85513 7.51344 2.7906 11.8055 5.9506L12.3983 5.14531C7.44603 1.49917 0.45166 5.03516 0.45166 11.1849H1.45166ZM29.9338 18.6127C29.31 19.2986 28.658 20.0389 27.9826 20.8282L28.7423 21.4784C29.412 20.6959 30.0574 19.9632 30.6736 19.2854L29.9338 18.6127ZM27.9826 20.8282C24.9454 24.3774 21.5444 28.7854 18.3026 33.3537L19.1182 33.9324C22.3463 29.3833 25.7287 25 28.7423 21.4784L27.9826 20.8282ZM18.3026 33.3537C15.0607 37.9223 11.9882 42.6369 9.60422 46.7978L10.4719 47.2949C12.8358 43.1689 15.8896 38.4821 19.1182 33.9324L18.3026 33.3537ZM9.60422 46.7978C9.03311 47.7946 8.50638 48.7514 8.02883 49.6604L8.91409 50.1255C9.3853 49.2285 9.90608 48.2824 10.4719 47.2949L9.60422 46.7978ZM12.3538 47.6779C11.177 48.7611 9.80355 49.2996 8.43696 49.3941L8.50596 50.3917C10.094 50.2819 11.6833 49.6542 13.0311 48.4136L12.3538 47.6779ZM37.7428 24.3075L12.3538 47.6779L13.0311 48.4136L38.42 25.0433L37.7428 24.3075ZM30.0073 19.3517L37.785 25.078L38.3779 24.2727L30.6002 18.5464L30.0073 19.3517Z" fill="#1B63DE" fill-opacity="0.92"/>
<path fill-rule="evenodd" clip-rule="evenodd" d="M53.926 7.46467V44.959C53.926 50.7176 47.3603 54.0129 42.743 50.5717L41.2026 49.4237V4.37579C41.6825 3.84991 42.1553 3.33579 42.6199 2.83422C46.7822 -1.65971 53.926 1.33931 53.926 7.46467ZM39.1084 6.69693V47.8629L18.6089 32.5851C18.6089 32.5851 22.1252 27.0014 32.7658 14.0863C34.9134 11.4796 37.0561 8.99789 39.1084 6.69693Z" fill="#106FFB"/>
<path d="M42.743 50.5717L42.4442 50.9726L42.743 50.5717ZM41.2026 49.4237H40.7026V49.6747L40.9038 49.8246L41.2026 49.4237ZM41.2026 4.37579L40.8333 4.03876L40.7026 4.18195V4.37579H41.2026ZM42.6199 2.83422L42.2531 2.49446L42.2531 2.49446L42.6199 2.83422ZM39.1084 47.8629L38.8096 48.2638L39.6084 48.8592V47.8629H39.1084ZM39.1084 6.69693H39.6084V5.38519L38.7353 6.36412L39.1084 6.69693ZM18.6089 32.5851L18.1858 32.3186L17.9395 32.7098L18.3101 32.986L18.6089 32.5851ZM32.7658 14.0863L32.3799 13.7684L32.7658 14.0863ZM54.426 44.959V7.46467H53.426V44.959H54.426ZM42.4442 50.9726C47.3913 54.6596 54.426 51.1289 54.426 44.959H53.426C53.426 50.3063 47.3293 53.3662 43.0418 50.1708L42.4442 50.9726ZM40.9038 49.8246L42.4442 50.9726L43.0418 50.1708L41.5014 49.0228L40.9038 49.8246ZM40.7026 4.37579V49.4237H41.7026V4.37579H40.7026ZM42.2531 2.49446C41.7877 2.99691 41.314 3.51194 40.8333 4.03876L41.572 4.71282C42.051 4.18788 42.523 3.67467 42.9867 3.17398L42.2531 2.49446ZM54.426 7.46467C54.426 0.918582 46.7473 -2.35788 42.2531 2.49446L42.9867 3.17398C46.8171 -0.961549 53.426 1.76003 53.426 7.46467H54.426ZM39.6084 47.8629V6.69693H38.6084V47.8629H39.6084ZM18.3101 32.986L38.8096 48.2638L39.4072 47.462L18.9077 32.1842L18.3101 32.986ZM32.3799 13.7684C27.0543 20.2323 23.5093 24.8643 21.294 27.883C20.1863 29.3924 19.4111 30.4985 18.9118 31.2286C18.6622 31.5937 18.4816 31.8648 18.3629 32.0453C18.3036 32.1355 18.2598 32.2032 18.2305 32.2486C18.2159 32.2713 18.205 32.2884 18.1975 32.3001C18.1938 32.3059 18.191 32.3104 18.189 32.3135C18.1881 32.315 18.1873 32.3162 18.1868 32.3171C18.1865 32.3175 18.1863 32.3178 18.1861 32.3181C18.186 32.3182 18.186 32.3184 18.1859 32.3184C18.1858 32.3185 18.1858 32.3186 18.6089 32.5851C19.032 32.8515 19.032 32.8515 19.0319 32.8516C19.032 32.8516 19.0319 32.8516 19.032 32.8515C19.032 32.8514 19.0321 32.8513 19.0323 32.851C19.0326 32.8505 19.0331 32.8497 19.0339 32.8485C19.0354 32.8461 19.0378 32.8423 19.0411 32.8372C19.0476 32.8269 19.0577 32.8112 19.0714 32.7898C19.0989 32.7471 19.141 32.6822 19.1986 32.5945C19.3138 32.4193 19.491 32.1532 19.7373 31.793C20.2299 31.0726 20.9987 29.9756 22.1002 28.4747C24.3032 25.4727 27.8366 20.8554 33.1517 14.4042L32.3799 13.7684ZM38.7353 6.36412C36.6792 8.66927 34.5322 11.1559 32.3799 13.7684L33.1517 14.4042C35.2946 11.8032 37.433 9.3265 39.4815 7.02975L38.7353 6.36412Z" fill="#3AA9FF" fill-opacity="0.81"/>
</svg>
