<svg width="12" height="11" viewBox="0 0 12 11" fill="none" xmlns="http://www.w3.org/2000/svg">
<path d="M7.82598 5.98124H6.26191V4.3828C6.26191 4.17655 6.09004 3.98749 5.8666 3.98749C5.66035 3.98749 5.47129 4.15936 5.47129 4.3828V5.98124H5.41973C5.21348 5.98124 5.02441 6.15311 5.02441 6.37655C5.02441 6.59999 5.19629 6.77186 5.41973 6.77186H5.47129V6.82343C5.47129 7.02968 5.64316 7.21874 5.8666 7.21874C6.07285 7.21874 6.26191 7.04686 6.26191 6.82343V6.77186H7.82598C8.03223 6.77186 8.22129 6.59999 8.22129 6.37655C8.22129 6.15311 8.03223 5.98124 7.82598 5.98124Z" fill="white"/>
<path d="M10.5931 3.2828C10.5931 2.33749 9.83686 1.58124 8.89155 1.58124C8.44468 1.58124 8.03218 1.75311 7.7228 2.0453C7.25874 1.83905 6.77749 1.70155 6.24468 1.66718V1.0828H6.72593C6.93218 1.0828 7.12124 0.910925 7.12124 0.687488C7.12124 0.46405 6.94936 0.292175 6.72593 0.292175H4.98999C4.78374 0.292175 4.59468 0.46405 4.59468 0.687488C4.59468 0.910925 4.76655 1.0828 4.98999 1.0828H5.47124V1.68436C4.95562 1.73593 4.45718 1.85624 3.99312 2.06249C3.68374 1.7703 3.27124 1.59843 2.82437 1.59843C1.87905 1.59843 1.1228 2.35468 1.1228 3.29999C1.1228 3.76405 1.31187 4.21092 1.65562 4.5203C1.44937 5.03592 1.32905 5.60311 1.32905 6.18749C1.32905 8.67967 3.35718 10.7078 5.84936 10.7078C8.34155 10.7078 10.3697 8.67967 10.3697 6.18749C10.3697 5.60311 10.2494 5.03592 10.0431 4.5203C10.4041 4.19374 10.5931 3.74686 10.5931 3.2828ZM8.89155 2.35468C9.40718 2.35468 9.81968 2.76718 9.81968 3.2828C9.81968 3.45467 9.76811 3.62655 9.68218 3.76405C9.35561 3.24842 8.94311 2.81874 8.44468 2.47499C8.58218 2.38905 8.73686 2.35468 8.89155 2.35468ZM1.91343 3.2828C1.91343 2.76718 2.32593 2.35468 2.84155 2.35468C2.99624 2.35468 3.15093 2.38905 3.28843 2.47499C2.78999 2.81874 2.37749 3.26561 2.05093 3.76405C1.96499 3.60936 1.91343 3.45467 1.91343 3.2828ZM5.86655 9.93436C3.80405 9.93436 2.11968 8.24999 2.11968 6.18749C2.11968 4.12499 3.80405 2.44061 5.86655 2.44061C7.92905 2.44061 9.61343 4.12499 9.61343 6.18749C9.61343 8.24999 7.92905 9.93436 5.86655 9.93436Z" fill="white"/>
</svg>
