<svg width="14" height="17" viewBox="0 0 14 17" fill="none" xmlns="http://www.w3.org/2000/svg">
<g clip-path="url(#clip0_14_189)">
<path d="M12.25 1.27924H7.32808C6.58433 1.27924 5.97183 1.97924 5.97183 2.85424V3.82924H1.74995C1.0062 3.82924 0.371826 4.52924 0.371826 5.40424V14.8292C0.371826 15.6792 0.984326 16.4042 1.74995 16.4042H12.25C12.9937 16.4042 13.6281 15.7042 13.6281 14.8292V2.82924C13.6281 1.97924 12.9937 1.27924 12.25 1.27924ZM5.94995 15.2792H1.74995C1.5312 15.2792 1.3562 15.0792 1.3562 14.8292V5.37924C1.3562 5.12924 1.5312 4.92924 1.74995 4.92924H5.94995V15.2792ZM12.6437 14.8292C12.6437 15.0792 12.4687 15.2792 12.25 15.2792H6.93433V2.82924C6.93433 2.57924 7.10933 2.37924 7.3062 2.37924H12.25C12.4687 2.37924 12.6437 2.57924 12.6437 2.82924V14.8292Z" fill="white"/>
<path d="M3.06245 7.85422H4.28745C4.54995 7.85422 4.79058 7.60422 4.79058 7.27922C4.79058 6.95422 4.57183 6.70422 4.28745 6.70422H3.06245C2.79995 6.70422 2.55933 6.95422 2.55933 7.27922C2.55933 7.60422 2.79995 7.85422 3.06245 7.85422Z" fill="white"/>
<path d="M3.06245 10.6542H4.28745C4.54995 10.6542 4.79058 10.4042 4.79058 10.0792C4.79058 9.75424 4.57183 9.50424 4.28745 9.50424H3.06245C2.79995 9.50424 2.55933 9.75424 2.55933 10.0792C2.55933 10.4042 2.79995 10.6542 3.06245 10.6542Z" fill="white"/>
<path d="M3.0406 13.4792H4.2656C4.5281 13.4792 4.76873 13.2292 4.76873 12.9042C4.76873 12.5792 4.54998 12.3292 4.2656 12.3292H3.0406C2.7781 12.3292 2.53748 12.5792 2.53748 12.9042C2.53748 13.2292 2.7781 13.4792 3.0406 13.4792Z" fill="white"/>
<path d="M10.4125 4.50424H9.18745C8.92495 4.50424 8.68433 4.75424 8.68433 5.07924C8.68433 5.40424 8.90308 5.65424 9.18745 5.65424H10.4125C10.675 5.65424 10.9156 5.40424 10.9156 5.07924C10.9156 4.75424 10.675 4.50424 10.4125 4.50424Z" fill="white"/>
<path d="M10.4125 8.10425H9.18745C8.92495 8.10425 8.68433 8.35425 8.68433 8.67925C8.68433 8.97925 8.90308 9.25425 9.18745 9.25425H10.4125C10.675 9.25425 10.9156 9.00425 10.9156 8.67925C10.8937 8.35425 10.675 8.10425 10.4125 8.10425Z" fill="white"/>
<path d="M10.3906 11.7042H9.1656C8.9031 11.7042 8.66248 11.9542 8.66248 12.2792C8.66248 12.6042 8.88123 12.8542 9.1656 12.8542H10.3906C10.6531 12.8542 10.8937 12.6042 10.8937 12.2792C10.8937 11.9542 10.6531 11.7042 10.3906 11.7042Z" fill="white"/>
</g>
<defs>
<clipPath id="clip0_14_189">
<rect width="14" height="16" fill="white" transform="translate(0 0.829224)"/>
</clipPath>
</defs>
</svg>
