<svg width="15" height="16" viewBox="0 0 15 16" fill="none" xmlns="http://www.w3.org/2000/svg">
<path d="M6.40213 8.14869C8.61513 8.14869 10.4091 6.35469 10.4091 4.1417C10.4091 1.9287 8.61513 0.134705 6.40213 0.134705C4.18913 0.134705 2.39514 1.9287 2.39514 4.1417C2.39514 6.35469 4.18913 8.14869 6.40213 8.14869Z" fill="white"/>
<path d="M11.486 7.84817C11.1109 7.84784 10.7396 7.92147 10.393 8.06483C10.0465 8.20819 9.73163 8.41847 9.46645 8.68364C9.20128 8.94882 8.99099 9.26368 8.84763 9.61021C8.70427 9.95674 8.63065 10.3281 8.63098 10.7032C8.63098 12.6315 10.6595 14.4597 11.2856 14.9355C11.3363 14.9836 11.4036 15.0104 11.4734 15.0104C11.5433 15.0104 11.6106 14.9836 11.6613 14.9355C12.2874 14.4347 14.3159 12.6315 14.3159 10.7032C14.3209 10.329 14.2513 9.95752 14.1112 9.61052C13.971 9.26353 13.7632 8.94792 13.4997 8.68214C13.2363 8.41636 12.9225 8.20573 12.5767 8.06254C12.231 7.91935 11.8602 7.84648 11.486 7.84817ZM11.486 11.8552C11.2532 11.8552 11.0256 11.7861 10.832 11.6568C10.6385 11.5275 10.4876 11.3436 10.3985 11.1285C10.3094 10.9135 10.2861 10.6768 10.3315 10.4485C10.3769 10.2202 10.489 10.0104 10.6537 9.84581C10.8183 9.68119 11.028 9.56909 11.2563 9.52367C11.4847 9.47826 11.7213 9.50157 11.9364 9.59066C12.1515 9.67974 12.3353 9.83061 12.4646 10.0242C12.594 10.2177 12.663 10.4453 12.663 10.6781C12.6591 10.9891 12.5339 11.2862 12.314 11.5061C12.0941 11.726 11.7969 11.8513 11.486 11.8552Z" fill="white"/>
<path d="M7.4289 15.0107H7.77951C9.08178 14.8855 8.38056 14.0841 8.38056 14.0841C7.57916 12.9321 7.12837 11.8051 7.12837 10.7032C7.1237 10.3469 7.17439 9.99206 7.27864 9.65134C7.32872 9.15047 7.12837 9.02525 7.0282 8.97516H6.97811C6.77852 8.95379 6.57774 8.94542 6.37706 8.95012C4.91262 8.9517 3.49802 9.48218 2.39364 10.4439C1.28925 11.4056 0.569401 12.7339 0.366577 14.1843C0.366577 14.4848 0.466752 15.0608 1.41841 15.0608H7.37881C7.37881 15.0107 7.40385 15.0107 7.4289 15.0107Z" fill="white"/>
</svg>
