<svg width="24" height="24" viewBox="0 0 24 24" fill="none" xmlns="http://www.w3.org/2000/svg">
<path d="M22.65 7.38745C22.2 6.93745 21.6 6.67495 20.9625 6.67495H18.225V5.21245C18.225 4.79995 18.075 3.82495 16.65 3.82495H7.27495C5.92495 3.82495 5.77495 4.79995 5.77495 5.21245V6.67495H3.03745C1.72495 6.67495 0.637451 7.76245 0.637451 9.07495V17.775C0.637451 19.0875 1.72495 20.1749 3.03745 20.1749H20.9249C22.2374 20.1749 23.325 19.0875 23.325 17.775V9.07495C23.3625 8.43745 23.1 7.83745 22.65 7.38745ZM21.6375 17.775C21.6375 18.15 21.3375 18.4874 20.9249 18.4874H3.03745C2.66245 18.4874 2.32495 18.1875 2.32495 17.775V9.07495C2.32495 8.69995 2.62495 8.36245 3.03745 8.36245H6.22495C6.89995 8.36245 7.46245 7.79995 7.46245 7.12495V5.51245H16.5V7.12495C16.5 7.79995 17.0625 8.36245 17.7374 8.36245H20.9625C21.15 8.36245 21.3375 8.43745 21.45 8.58745C21.6 8.73745 21.6375 8.88745 21.6375 9.07495V17.775Z" fill="black"/>
<path d="M11.85 8.8125C9.89995 8.8125 8.32495 10.3875 8.32495 12.375C8.32495 14.325 9.86245 15.8625 11.85 15.8625C13.8 15.8625 15.375 14.2875 15.375 12.375C15.375 10.4625 13.7625 8.8125 11.85 8.8125ZM11.85 14.175C10.8 14.175 10.0125 13.3875 10.0125 12.375C10.0125 11.3625 10.8375 10.5 11.85 10.5C12.8625 10.5 13.6875 11.3625 13.6875 12.375C13.6875 13.3875 12.8625 14.175 11.85 14.175Z" fill="black"/>
<path d="M5.17495 9.48755H4.31245C3.86245 9.48755 3.44995 9.86255 3.44995 10.35C3.44995 10.8375 3.82495 11.2125 4.31245 11.2125H5.17495C5.62495 11.2125 6.03745 10.8375 6.03745 10.35C6.03745 9.86255 5.66245 9.48755 5.17495 9.48755Z" fill="black"/>
</svg>
