<svg width="51" height="52" viewBox="0 0 51 52" fill="none" xmlns="http://www.w3.org/2000/svg">
<path d="M25.5 29.8438C32.1141 29.8438 37.4531 24.5047 37.4531 17.8906C37.4531 11.2766 32.1141 5.93752 25.5 5.93752C18.8859 5.93752 13.5469 11.2766 13.5469 17.8906C13.5469 24.5047 18.8859 29.8438 25.5 29.8438ZM25.5 9.52345C30.1219 9.52345 33.8672 13.2688 33.8672 17.8906C33.8672 22.5125 30.1219 26.2578 25.5 26.2578C20.8781 26.2578 17.1328 22.5125 17.1328 17.8906C17.1328 13.2688 20.8781 9.52345 25.5 9.52345Z" fill="white"/>
<path d="M49.0076 42.9125C42.4732 37.4141 34.1857 34.386 25.4998 34.386C16.8138 34.386 8.52632 37.4141 1.99195 42.9125C1.27476 43.55 1.11539 44.6656 1.75289 45.4625C2.39039 46.1797 3.50601 46.3391 4.30289 45.7016C10.1998 40.6813 17.6904 37.9719 25.4998 37.9719C33.3091 37.9719 40.7998 40.6813 46.6169 45.6219C46.9357 45.9406 47.3341 46.0203 47.8123 46.0203C48.2904 46.0203 48.8482 45.7813 49.1669 45.3828C49.8044 44.6656 49.7248 43.55 49.0076 42.9125Z" fill="white"/>
<circle cx="25.4999" cy="17.7142" r="8.87006" fill="white"/>
</svg>
